<?xml version="1.0" encoding="UTF-8"?>
<svg xmlns="http://www.w3.org/2000/svg" xmlns:xlink="http://www.w3.org/1999/xlink" width="180.38pt" height="96.15pt" viewBox="0 0 180.38 96.15" version="1.1">
<g id="surface1">
<path style=" stroke:none;fill-rule:nonzero;fill:rgb(27.058411%,27.058411%,27.058411%);fill-opacity:1;" d="M 20.894531 77.511719 C 20.894531 77.648438 20.789062 77.75 20.652344 77.75 L 19.296875 77.75 C 19.164062 77.75 19.058594 77.648438 19.058594 77.511719 L 19.058594 67.550781 C 19.058594 67.417969 19.164062 67.3125 19.296875 67.3125 L 20.652344 67.3125 C 20.789062 67.3125 20.894531 67.417969 20.894531 67.550781 L 20.894531 77.511719 "/>
<path style=" stroke:none;fill-rule:nonzero;fill:rgb(27.058411%,27.058411%,27.058411%);fill-opacity:1;" d="M 3.914062 71.21875 L 1.960938 77.527344 C 1.914062 77.660156 1.78125 77.75 1.648438 77.75 L 0.171875 77.75 C 0.0507812 77.75 -0.0234375 77.632812 0.0078125 77.527344 L 3.40625 67.386719 C 3.453125 67.253906 3.570312 67.164062 3.703125 67.164062 C 3.851562 67.164062 3.972656 67.253906 4.03125 67.371094 L 6.96875 74.007812 L 9.90625 67.371094 C 9.953125 67.253906 10.085938 67.164062 10.222656 67.164062 C 10.371094 67.164062 10.488281 67.253906 10.535156 67.386719 L 13.933594 77.527344 C 13.964844 77.632812 13.890625 77.75 13.769531 77.75 L 12.292969 77.75 C 12.144531 77.75 12.027344 77.660156 11.980469 77.527344 L 10.027344 71.21875 L 7.179688 77.78125 C 7.148438 77.855469 7.058594 77.914062 6.96875 77.914062 C 6.882812 77.914062 6.792969 77.855469 6.761719 77.78125 L 3.914062 71.21875 "/>
<path style=" stroke:none;fill-rule:nonzero;fill:rgb(27.058411%,27.058411%,27.058411%);fill-opacity:1;" d="M 29.410156 76.109375 L 33.019531 76.109375 C 33.152344 76.109375 33.257812 76.214844 33.257812 76.347656 L 33.257812 77.511719 C 33.257812 77.648438 33.152344 77.75 33.019531 77.75 L 27.816406 77.75 C 27.679688 77.75 27.578125 77.648438 27.578125 77.511719 L 27.578125 67.550781 C 27.578125 67.417969 27.679688 67.3125 27.816406 67.3125 L 29.171875 67.3125 C 29.304688 67.3125 29.410156 67.417969 29.410156 67.550781 L 29.410156 76.109375 "/>
<path style=" stroke:none;fill-rule:nonzero;fill:rgb(27.058411%,27.058411%,27.058411%);fill-opacity:1;" d="M 40.851562 76.109375 L 44.460938 76.109375 C 44.597656 76.109375 44.699219 76.214844 44.699219 76.347656 L 44.699219 77.511719 C 44.699219 77.648438 44.597656 77.75 44.460938 77.75 L 39.257812 77.75 C 39.125 77.75 39.019531 77.648438 39.019531 77.511719 L 39.019531 67.550781 C 39.019531 67.417969 39.125 67.3125 39.257812 67.3125 L 40.613281 67.3125 C 40.75 67.3125 40.851562 67.417969 40.851562 67.550781 L 40.851562 76.109375 "/>
<path style=" stroke:none;fill-rule:nonzero;fill:rgb(27.058411%,27.058411%,27.058411%);fill-opacity:1;" d="M 52.214844 73.425781 L 52.214844 76.109375 L 57.132812 76.109375 C 57.269531 76.109375 57.375 76.214844 57.375 76.347656 L 57.375 77.511719 C 57.375 77.648438 57.269531 77.75 57.132812 77.75 L 50.632812 77.75 C 50.5 77.75 50.394531 77.648438 50.394531 77.511719 L 50.394531 67.550781 C 50.394531 67.417969 50.5 67.3125 50.632812 67.3125 L 57.132812 67.3125 C 57.269531 67.3125 57.375 67.417969 57.375 67.550781 L 57.375 68.714844 C 57.375 68.847656 57.269531 68.953125 57.132812 68.953125 L 52.214844 68.953125 L 52.214844 71.785156 L 56.015625 71.785156 C 56.148438 71.785156 56.253906 71.890625 56.253906 72.023438 L 56.253906 73.1875 C 56.253906 73.324219 56.148438 73.425781 56.015625 73.425781 L 52.214844 73.425781 "/>
<path style=" stroke:none;fill-rule:nonzero;fill:rgb(27.058411%,27.058411%,27.058411%);fill-opacity:1;" d="M 65.488281 77.511719 C 65.488281 77.648438 65.382812 77.75 65.246094 77.75 L 63.921875 77.75 C 63.785156 77.75 63.683594 77.648438 63.683594 77.511719 L 63.683594 67.550781 C 63.683594 67.417969 63.785156 67.3125 63.921875 67.3125 L 67.589844 67.3125 C 70.421875 67.3125 71.273438 69.28125 71.273438 70.636719 C 71.273438 72.160156 70.289062 73.277344 69.082031 73.753906 C 69.632812 74.949219 70.300781 76.351562 70.855469 77.542969 C 70.898438 77.632812 70.824219 77.75 70.71875 77.75 L 69.230469 77.75 C 69.082031 77.75 68.945312 77.660156 68.886719 77.542969 L 67.230469 74.007812 L 65.488281 74.007812 Z M 69.4375 70.636719 C 69.4375 70.054688 69.125 68.9375 67.664062 68.9375 L 65.488281 68.9375 L 65.488281 72.339844 L 67.722656 72.339844 C 69.125 72.308594 69.4375 71.175781 69.4375 70.636719 "/>
<path style=" stroke:none;fill-rule:nonzero;fill:rgb(27.058411%,27.058411%,27.058411%);fill-opacity:1;" d="M 88.285156 68.953125 L 85.601562 68.953125 C 85.46875 68.953125 85.363281 68.847656 85.363281 68.714844 L 85.363281 67.550781 C 85.363281 67.417969 85.46875 67.3125 85.601562 67.3125 L 92.832031 67.3125 C 92.96875 67.3125 93.074219 67.417969 93.074219 67.550781 L 93.074219 68.714844 C 93.074219 68.847656 92.96875 68.953125 92.832031 68.953125 L 90.121094 68.953125 L 90.121094 77.511719 C 90.121094 77.648438 90.015625 77.75 89.882812 77.75 L 88.523438 77.75 C 88.390625 77.75 88.285156 77.648438 88.285156 77.511719 L 88.285156 68.953125 "/>
<path style=" stroke:none;fill-rule:nonzero;fill:rgb(27.058411%,27.058411%,27.058411%);fill-opacity:1;" d="M 100.601562 77.511719 C 100.601562 77.648438 100.5 77.75 100.363281 77.75 L 99.007812 77.75 C 98.875 77.75 98.769531 77.648438 98.769531 77.511719 L 98.769531 67.550781 C 98.769531 67.417969 98.875 67.3125 99.007812 67.3125 L 100.363281 67.3125 C 100.5 67.3125 100.601562 67.417969 100.601562 67.550781 L 100.601562 71.785156 L 105.464844 71.785156 L 105.464844 67.550781 C 105.464844 67.417969 105.570312 67.3125 105.703125 67.3125 L 107.046875 67.3125 C 107.179688 67.3125 107.285156 67.417969 107.285156 67.550781 L 107.285156 77.511719 C 107.285156 77.648438 107.179688 77.75 107.046875 77.75 L 105.703125 77.75 C 105.570312 77.75 105.464844 77.648438 105.464844 77.511719 L 105.464844 73.425781 L 100.601562 73.425781 L 100.601562 77.511719 "/>
<path style=" stroke:none;fill-rule:nonzero;fill:rgb(27.058411%,27.058411%,27.058411%);fill-opacity:1;" d="M 122.800781 72.515625 C 122.800781 74.753906 121.605469 77.886719 117.640625 77.886719 C 113.65625 77.886719 112.464844 74.753906 112.464844 72.515625 C 112.464844 70.339844 113.65625 67.164062 117.640625 67.164062 C 121.605469 67.164062 122.800781 70.339844 122.800781 72.515625 M 120.933594 72.515625 C 120.933594 71.59375 120.515625 68.835938 117.640625 68.835938 C 114.730469 68.835938 114.3125 71.59375 114.3125 72.515625 C 114.3125 73.441406 114.730469 76.230469 117.640625 76.230469 C 120.515625 76.230469 120.933594 73.441406 120.933594 72.515625 "/>
<path style=" stroke:none;fill-rule:nonzero;fill:rgb(27.058411%,27.058411%,27.058411%);fill-opacity:1;" d="M 130.402344 71.21875 L 128.449219 77.527344 C 128.402344 77.660156 128.269531 77.75 128.136719 77.75 L 126.660156 77.75 C 126.539062 77.75 126.464844 77.632812 126.496094 77.527344 L 129.894531 67.386719 C 129.941406 67.253906 130.058594 67.164062 130.191406 67.164062 C 130.34375 67.164062 130.460938 67.253906 130.523438 67.371094 L 133.460938 74.007812 L 136.398438 67.371094 C 136.441406 67.253906 136.574219 67.164062 136.710938 67.164062 C 136.859375 67.164062 136.980469 67.253906 137.023438 67.386719 L 140.421875 77.527344 C 140.453125 77.632812 140.378906 77.75 140.257812 77.75 L 138.78125 77.75 C 138.632812 77.75 138.515625 77.660156 138.46875 77.527344 L 136.515625 71.21875 L 133.667969 77.78125 C 133.636719 77.855469 133.550781 77.914062 133.460938 77.914062 C 133.371094 77.914062 133.28125 77.855469 133.25 77.78125 L 130.402344 71.21875 "/>
<path style=" stroke:none;fill-rule:nonzero;fill:rgb(27.058411%,27.058411%,27.058411%);fill-opacity:1;" d="M 152.261719 74.949219 C 152.261719 76.601562 150.667969 77.871094 148.519531 77.871094 C 147.042969 77.871094 145.984375 77.574219 144.835938 76.992188 C 144.714844 76.929688 144.671875 76.796875 144.730469 76.675781 L 145.222656 75.617188 C 145.28125 75.5 145.417969 75.441406 145.535156 75.5 C 146.445312 75.902344 147.402344 76.214844 148.398438 76.214844 C 149.429688 76.214844 150.367188 75.722656 150.367188 74.933594 C 150.367188 72.457031 144.761719 73.816406 144.761719 70.117188 C 144.761719 68.253906 146.148438 67.148438 148.085938 67.148438 C 148.652344 67.148438 149.996094 67.253906 151.546875 67.9375 C 151.679688 68 151.726562 68.148438 151.679688 68.269531 L 151.1875 69.355469 C 151.144531 69.488281 150.996094 69.535156 150.875 69.488281 C 150.128906 69.207031 148.996094 68.878906 148.414062 68.878906 C 147.429688 68.878906 146.65625 69.074219 146.59375 70.011719 C 146.625 72.097656 152.261719 70.890625 152.261719 74.949219 "/>
<path style=" stroke:none;fill-rule:nonzero;fill:rgb(27.058411%,27.058411%,27.058411%);fill-opacity:1;" d="M 167.011719 72.515625 C 167.011719 74.753906 165.816406 77.886719 161.851562 77.886719 C 157.867188 77.886719 156.675781 74.753906 156.675781 72.515625 C 156.675781 70.339844 157.867188 67.164062 161.851562 67.164062 C 165.816406 67.164062 167.011719 70.339844 167.011719 72.515625 M 165.144531 72.515625 C 165.144531 71.59375 164.726562 68.835938 161.851562 68.835938 C 158.941406 68.835938 158.523438 71.59375 158.523438 72.515625 C 158.523438 73.441406 158.941406 76.230469 161.851562 76.230469 C 164.726562 76.230469 165.144531 73.441406 165.144531 72.515625 "/>
<path style=" stroke:none;fill-rule:nonzero;fill:rgb(27.058411%,27.058411%,27.058411%);fill-opacity:1;" d="M 172.089844 77.75 C 171.953125 77.75 171.847656 77.648438 171.847656 77.511719 L 171.847656 67.386719 C 171.847656 67.28125 171.9375 67.195312 172.027344 67.195312 C 172.148438 67.195312 172.265625 67.238281 172.355469 67.328125 L 178.546875 73.621094 L 178.546875 67.550781 C 178.546875 67.417969 178.648438 67.3125 178.78125 67.3125 L 180.140625 67.3125 C 180.273438 67.3125 180.378906 67.417969 180.378906 67.550781 L 180.378906 77.691406 C 180.378906 77.796875 180.289062 77.886719 180.171875 77.886719 C 180.050781 77.886719 179.929688 77.839844 179.839844 77.734375 L 173.683594 71.324219 L 173.683594 77.511719 C 173.683594 77.648438 173.578125 77.75 173.445312 77.75 L 172.089844 77.75 "/>
<path style=" stroke:none;fill-rule:nonzero;fill:rgb(97.254944%,31.764221%,32.548523%);fill-opacity:1;" d="M 87.886719 32.128906 L 88.085938 35.640625 L 88.183594 37.351562 L 89.148438 54.359375 L 90.09375 38.089844 L 90.230469 35.640625 L 90.433594 32.128906 L 93.578125 33.710938 L 110.324219 42.140625 L 93.425781 31.046875 L 89.601562 28.546875 C 89.328125 28.367188 88.972656 28.367188 88.695312 28.546875 L 67.996094 42.140625 L 84.742188 33.710938 L 87.886719 32.128906 "/>
<path style=" stroke:none;fill-rule:nonzero;fill:rgb(56.471252%,80.392456%,87.059021%);fill-opacity:1;" d="M 83.871094 24.441406 L 80.929688 22.511719 L 79.496094 21.570312 L 65.25 12.230469 L 79.8125 19.550781 L 82 20.652344 L 85.144531 22.234375 L 85.34375 18.71875 L 86.417969 0.00390625 L 87.574219 20.183594 L 87.832031 24.746094 C 87.847656 25.074219 87.671875 25.382812 87.378906 25.53125 L 65.253906 36.660156 L 80.929688 26.371094 L 83.871094 24.441406 "/>
<path style=" stroke:none;fill-rule:nonzero;fill:rgb(98.431396%,83.921814%,34.509277%);fill-opacity:1;" d="M 94.449219 24.4375 L 97.390625 22.507812 L 98.820312 21.566406 L 113.070312 12.226562 L 98.507812 19.546875 L 96.316406 20.648438 L 93.175781 22.230469 L 92.972656 18.71875 L 91.902344 0 L 90.742188 20.179688 L 90.488281 24.742188 C 90.46875 25.070312 90.648438 25.378906 90.941406 25.527344 L 113.0625 36.65625 L 97.390625 26.367188 L 94.449219 24.4375 "/>
<path style=" stroke:none;fill-rule:nonzero;fill:rgb(27.058411%,27.058411%,27.058411%);fill-opacity:1;" d="M 96.035156 93.261719 L 98.289062 93.261719 C 98.375 93.261719 98.453125 93.335938 98.453125 93.421875 L 98.453125 93.871094 C 98.453125 93.957031 98.375 94.03125 98.289062 94.03125 L 95.304688 94.03125 C 95.21875 94.03125 95.144531 93.957031 95.144531 93.871094 L 95.144531 87.945312 C 95.144531 87.859375 95.21875 87.785156 95.304688 87.785156 L 95.871094 87.785156 C 95.957031 87.785156 96.035156 87.859375 96.035156 87.945312 L 96.035156 93.261719 "/>
<path style=" stroke:none;fill-rule:nonzero;fill:rgb(27.058411%,27.058411%,27.058411%);fill-opacity:1;" d="M 102.175781 91.742188 L 103.984375 91.742188 L 103.085938 89.582031 Z M 104.296875 92.480469 L 101.867188 92.480469 L 101.277344 93.882812 C 101.234375 93.976562 101.148438 94.03125 101.054688 94.03125 L 100.433594 94.03125 C 100.359375 94.03125 100.304688 93.957031 100.335938 93.882812 L 102.9375 87.816406 C 102.957031 87.753906 103.023438 87.722656 103.074219 87.722656 C 103.140625 87.722656 103.191406 87.753906 103.226562 87.816406 L 105.824219 93.882812 C 105.855469 93.957031 105.804688 94.03125 105.726562 94.03125 L 105.109375 94.03125 C 105.011719 94.03125 104.925781 93.976562 104.882812 93.882812 L 104.296875 92.480469 "/>
<path style=" stroke:none;fill-rule:nonzero;fill:rgb(27.058411%,27.058411%,27.058411%);fill-opacity:1;" d="M 114.972656 87.925781 C 115.015625 87.839844 115.101562 87.773438 115.199219 87.773438 L 115.820312 87.773438 C 115.894531 87.773438 115.949219 87.847656 115.914062 87.925781 L 113.316406 93.988281 C 113.285156 94.054688 113.230469 94.085938 113.167969 94.085938 C 113.113281 94.085938 113.050781 94.054688 113.027344 93.988281 L 111.199219 89.730469 L 109.378906 93.988281 C 109.347656 94.054688 109.292969 94.085938 109.230469 94.085938 C 109.175781 94.085938 109.113281 94.054688 109.089844 93.988281 L 106.492188 87.925781 C 106.460938 87.847656 106.511719 87.773438 106.589844 87.773438 L 107.210938 87.773438 C 107.304688 87.773438 107.390625 87.839844 107.433594 87.925781 L 109.242188 92.214844 L 111.089844 87.796875 C 111.113281 87.753906 111.15625 87.722656 111.199219 87.722656 C 111.253906 87.722656 111.296875 87.753906 111.316406 87.796875 L 113.167969 92.214844 L 114.972656 87.925781 "/>
<path style=" stroke:none;fill-rule:nonzero;fill:rgb(27.058411%,27.058411%,27.058411%);fill-opacity:1;" d="M 120.714844 93.871094 C 120.714844 93.957031 120.640625 94.03125 120.554688 94.03125 L 120 94.03125 C 119.914062 94.03125 119.839844 93.957031 119.839844 93.871094 L 119.839844 91.175781 L 117.785156 87.914062 C 117.742188 87.847656 117.785156 87.773438 117.859375 87.773438 L 118.523438 87.773438 C 118.617188 87.773438 118.714844 87.828125 118.769531 87.914062 L 120.265625 90.382812 L 121.765625 87.914062 C 121.816406 87.828125 121.914062 87.773438 122.007812 87.773438 L 122.703125 87.773438 C 122.769531 87.773438 122.8125 87.847656 122.78125 87.914062 L 120.714844 91.164062 L 120.714844 93.871094 "/>
<path style=" stroke:none;fill-rule:nonzero;fill:rgb(27.058411%,27.058411%,27.058411%);fill-opacity:1;" d="M 125.992188 91.335938 L 125.992188 93.261719 L 129.0625 93.261719 C 129.148438 93.261719 129.222656 93.335938 129.222656 93.421875 L 129.222656 93.871094 C 129.222656 93.957031 129.148438 94.03125 129.0625 94.03125 L 125.277344 94.03125 C 125.191406 94.03125 125.117188 93.957031 125.117188 93.871094 L 125.117188 87.945312 C 125.117188 87.859375 125.191406 87.785156 125.277344 87.785156 L 129.0625 87.785156 C 129.148438 87.785156 129.222656 87.859375 129.222656 87.945312 L 129.222656 88.375 C 129.222656 88.457031 129.148438 88.535156 129.0625 88.535156 L 125.992188 88.535156 L 125.992188 90.566406 L 128.367188 90.566406 C 128.453125 90.566406 128.527344 90.640625 128.527344 90.726562 L 128.527344 91.175781 C 128.527344 91.261719 128.453125 91.335938 128.367188 91.335938 L 125.992188 91.335938 "/>
<path style=" stroke:none;fill-rule:nonzero;fill:rgb(27.058411%,27.058411%,27.058411%);fill-opacity:1;" d="M 135.398438 89.710938 C 135.398438 89.304688 135.164062 88.511719 134.160156 88.511719 L 132.652344 88.511719 L 132.652344 90.910156 L 134.191406 90.910156 C 135.164062 90.898438 135.398438 90.085938 135.398438 89.710938 Z M 132.652344 93.871094 C 132.652344 93.957031 132.574219 94.03125 132.488281 94.03125 L 131.957031 94.03125 C 131.871094 94.03125 131.796875 93.957031 131.796875 93.871094 L 131.796875 87.933594 C 131.796875 87.847656 131.871094 87.773438 131.957031 87.773438 L 134.105469 87.773438 C 135.773438 87.773438 136.265625 88.917969 136.265625 89.710938 C 136.265625 90.609375 135.644531 91.390625 134.863281 91.59375 L 135.933594 93.882812 C 135.933594 93.902344 135.945312 93.914062 135.945312 93.925781 C 135.945312 93.988281 135.890625 94.03125 135.839844 94.03125 L 135.230469 94.03125 C 135.132812 94.03125 135.035156 93.976562 135.003906 93.882812 L 133.964844 91.6875 L 132.652344 91.6875 L 132.652344 93.871094 "/>
<path style=" stroke:none;fill-rule:nonzero;fill:rgb(27.058411%,27.058411%,27.058411%);fill-opacity:1;" d="M 139.234375 89.335938 C 139.234375 89.976562 139.90625 90.191406 140.65625 90.40625 C 141.597656 90.707031 142.773438 91.144531 142.773438 92.425781 C 142.773438 93.390625 141.832031 94.117188 140.558594 94.117188 C 139.726562 94.117188 139.09375 93.957031 138.441406 93.636719 C 138.367188 93.59375 138.335938 93.496094 138.367188 93.421875 L 138.558594 93.027344 C 138.601562 92.941406 138.699219 92.910156 138.785156 92.941406 C 139.320312 93.199219 139.898438 93.335938 140.496094 93.335938 C 141.210938 93.335938 141.875 92.984375 141.875 92.417969 C 141.875 91.613281 141.085938 91.390625 140.292969 91.15625 C 139.363281 90.886719 138.355469 90.585938 138.355469 89.398438 C 138.355469 88.320312 139.160156 87.679688 140.304688 87.679688 C 140.636719 87.679688 141.382812 87.730469 142.28125 88.117188 C 142.367188 88.148438 142.398438 88.246094 142.367188 88.332031 L 142.175781 88.746094 C 142.144531 88.832031 142.046875 88.875 141.960938 88.84375 C 141.488281 88.664062 140.839844 88.5 140.507812 88.5 C 139.8125 88.5 139.265625 88.628906 139.234375 89.324219 L 139.234375 89.335938 "/>
<path style=" stroke:none;fill-rule:nonzero;fill:rgb(27.058411%,27.058411%,27.058411%);fill-opacity:1;" d="M 89.085938 96.148438 C 89 96.148438 88.925781 96.074219 88.925781 95.988281 L 88.925781 85.890625 C 88.925781 85.804688 89 85.730469 89.085938 85.730469 L 89.375 85.730469 C 89.460938 85.730469 89.535156 85.804688 89.535156 85.890625 L 89.535156 95.988281 C 89.535156 96.074219 89.460938 96.148438 89.375 96.148438 L 89.085938 96.148438 "/>
<path style=" stroke:none;fill-rule:nonzero;fill:rgb(27.058411%,27.058411%,27.058411%);fill-opacity:1;" d="M 39.019531 91.742188 L 40.824219 91.742188 L 39.925781 89.582031 Z M 41.136719 92.480469 L 38.707031 92.480469 L 38.117188 93.882812 C 38.078125 93.976562 37.992188 94.03125 37.894531 94.03125 L 37.273438 94.03125 C 37.199219 94.03125 37.144531 93.957031 37.175781 93.882812 L 39.777344 87.816406 C 39.796875 87.753906 39.863281 87.722656 39.914062 87.722656 C 39.980469 87.722656 40.035156 87.753906 40.066406 87.816406 L 42.664062 93.882812 C 42.699219 93.957031 42.644531 94.03125 42.570312 94.03125 L 41.949219 94.03125 C 41.851562 94.03125 41.765625 93.976562 41.722656 93.882812 L 41.136719 92.480469 "/>
<path style=" stroke:none;fill-rule:nonzero;fill:rgb(27.058411%,27.058411%,27.058411%);fill-opacity:1;" d="M 46.296875 92.222656 L 48.09375 87.925781 C 48.136719 87.839844 48.222656 87.773438 48.316406 87.773438 L 48.9375 87.773438 C 49.011719 87.773438 49.066406 87.847656 49.035156 87.925781 L 46.433594 93.988281 C 46.402344 94.054688 46.347656 94.085938 46.285156 94.085938 C 46.230469 94.085938 46.167969 94.054688 46.148438 93.988281 L 43.546875 87.925781 C 43.515625 87.847656 43.570312 87.773438 43.644531 87.773438 L 44.265625 87.773438 C 44.359375 87.773438 44.445312 87.839844 44.488281 87.925781 L 46.296875 92.222656 "/>
<path style=" stroke:none;fill-rule:nonzero;fill:rgb(27.058411%,27.058411%,27.058411%);fill-opacity:1;" d="M 55.789062 90.886719 C 55.789062 90.265625 55.511719 88.46875 53.585938 88.46875 C 51.660156 88.46875 51.371094 90.265625 51.371094 90.886719 C 51.371094 91.519531 51.660156 93.324219 53.585938 93.324219 C 55.511719 93.324219 55.789062 91.519531 55.789062 90.886719 Z M 56.6875 90.886719 C 56.6875 92.234375 55.980469 94.105469 53.585938 94.105469 C 51.1875 94.105469 50.492188 92.234375 50.492188 90.886719 C 50.492188 89.582031 51.1875 87.6875 53.585938 87.6875 C 55.980469 87.6875 56.6875 89.582031 56.6875 90.886719 "/>
<path style=" stroke:none;fill-rule:nonzero;fill:rgb(27.058411%,27.058411%,27.058411%);fill-opacity:1;" d="M 63.589844 89.152344 C 63.527344 89.207031 63.417969 89.207031 63.355469 89.152344 C 62.9375 88.78125 62.320312 88.480469 61.730469 88.480469 C 59.792969 88.480469 59.515625 90.289062 59.515625 90.910156 C 59.515625 91.539062 59.792969 93.292969 61.730469 93.316406 C 62.351562 93.324219 62.960938 93.027344 63.386719 92.695312 C 63.464844 92.640625 63.558594 92.652344 63.621094 92.726562 L 63.921875 93.089844 C 63.988281 93.164062 63.976562 93.273438 63.910156 93.324219 C 63.34375 93.816406 62.652344 94.117188 61.730469 94.117188 C 59.335938 94.117188 58.617188 92.257812 58.617188 90.910156 C 58.617188 89.601562 59.335938 87.699219 61.730469 87.699219 C 62.691406 87.699219 63.355469 88.050781 63.921875 88.609375 C 63.988281 88.664062 63.988281 88.769531 63.921875 88.824219 L 63.589844 89.152344 "/>
<path style=" stroke:none;fill-rule:nonzero;fill:rgb(27.058411%,27.058411%,27.058411%);fill-opacity:1;" d="M 67.769531 91.742188 L 69.574219 91.742188 L 68.675781 89.582031 Z M 69.886719 92.480469 L 67.457031 92.480469 L 66.867188 93.882812 C 66.828125 93.976562 66.742188 94.03125 66.644531 94.03125 L 66.023438 94.03125 C 65.949219 94.03125 65.894531 93.957031 65.925781 93.882812 L 68.527344 87.816406 C 68.546875 87.753906 68.613281 87.722656 68.664062 87.722656 C 68.730469 87.722656 68.785156 87.753906 68.816406 87.816406 L 71.414062 93.882812 C 71.449219 93.957031 71.394531 94.03125 71.320312 94.03125 L 70.699219 94.03125 C 70.601562 94.03125 70.515625 93.976562 70.472656 93.882812 L 69.886719 92.480469 "/>
<path style=" stroke:none;fill-rule:nonzero;fill:rgb(27.058411%,27.058411%,27.058411%);fill-opacity:1;" d="M 74.074219 88.523438 L 72.394531 88.523438 C 72.308594 88.523438 72.230469 88.449219 72.230469 88.363281 L 72.230469 87.933594 C 72.230469 87.847656 72.308594 87.773438 72.394531 87.773438 L 76.652344 87.773438 C 76.734375 87.773438 76.808594 87.847656 76.808594 87.933594 L 76.808594 88.363281 C 76.808594 88.449219 76.734375 88.523438 76.652344 88.523438 L 74.949219 88.523438 L 74.949219 93.871094 C 74.949219 93.957031 74.875 94.03125 74.789062 94.03125 L 74.230469 94.03125 C 74.148438 94.03125 74.074219 93.957031 74.074219 93.871094 L 74.074219 88.523438 "/>
<path style=" stroke:none;fill-rule:nonzero;fill:rgb(27.058411%,27.058411%,27.058411%);fill-opacity:1;" d="M 79.347656 89.335938 C 79.347656 89.976562 80.023438 90.191406 80.773438 90.40625 C 81.714844 90.707031 82.890625 91.144531 82.890625 92.425781 C 82.890625 93.390625 81.949219 94.117188 80.675781 94.117188 C 79.84375 94.117188 79.210938 93.957031 78.558594 93.636719 C 78.484375 93.59375 78.453125 93.496094 78.484375 93.421875 L 78.675781 93.027344 C 78.71875 92.941406 78.816406 92.910156 78.902344 92.941406 C 79.433594 93.199219 80.011719 93.335938 80.613281 93.335938 C 81.328125 93.335938 81.992188 92.984375 81.992188 92.417969 C 81.992188 91.613281 81.199219 91.390625 80.40625 91.15625 C 79.476562 90.886719 78.472656 90.585938 78.472656 89.398438 C 78.472656 88.320312 79.273438 87.679688 80.417969 87.679688 C 80.75 87.679688 81.5 87.730469 82.398438 88.117188 C 82.484375 88.148438 82.515625 88.246094 82.484375 88.332031 L 82.289062 88.746094 C 82.257812 88.832031 82.164062 88.875 82.078125 88.84375 C 81.605469 88.664062 80.953125 88.5 80.621094 88.5 C 79.925781 88.5 79.382812 88.628906 79.347656 89.324219 L 79.347656 89.335938 "/>
</g>
</svg>
